<svg width="61" height="61" viewBox="0 0 61 61" fill="none" xmlns="http://www.w3.org/2000/svg">
<g filter="url(#filter0_d_1_79)">
<rect x="3.86487" y="3" width="53.2703" height="54" rx="9.52941" fill="#FF0000"/>
<rect x="4.26193" y="3.39706" width="52.4762" height="53.2059" rx="9.13235" stroke="#FF0000" stroke-width="0.794118"/>
</g>
<path d="M24.7507 42.6646C19.9823 42.3948 16.1856 38.4303 16.1856 33.5951C16.1856 28.5859 20.2606 24.5106 25.2694 24.5106C27.5095 24.5106 29.6606 25.3326 31.3263 26.8251C33.2502 28.5458 34.3538 31.0136 34.3538 33.5951C34.3538 35.76 33.5772 37.8447 32.1916 39.4765C33.1744 40.1132 34.3026 40.4936 35.4784 40.5803C36.8934 38.5204 37.6389 36.1168 37.6389 33.5951C37.6389 30.8934 36.7836 28.3273 35.1656 26.1742C33.8799 24.4626 32.1688 23.1077 30.217 22.2557C29.1353 21.7825 28.0043 21.4713 26.8393 21.3245C29.1941 19.591 30.0946 18.1382 30.0946 16.871C30.0946 15.3503 28.8619 14.1176 27.3412 14.1176C26.5149 14.1176 25.7743 14.482 25.2696 15.0583C24.765 14.482 24.0243 14.1176 23.198 14.1176C21.6774 14.1176 20.4447 15.3503 20.4447 16.871C20.4447 18.1384 21.3455 19.5914 23.7011 21.3253C17.6187 22.0983 12.9005 27.3061 12.9005 33.5951C12.9005 40.4153 18.4491 45.964 25.2694 45.964C26.2123 45.964 27.138 45.8593 28.0392 45.6531C26.801 44.8344 25.689 43.8266 24.7507 42.6646Z" fill="white"/>
<path d="M35.9965 21.2263C35.0535 21.2263 34.1278 21.331 33.2266 21.5372C34.4648 22.356 35.5768 23.3638 36.5151 24.5257C41.2835 24.7955 45.0803 28.76 45.0803 33.5951C45.0803 38.6043 41.0054 42.6797 35.9966 42.6797C33.7565 42.6797 31.6054 41.8577 29.9395 40.3652C28.0157 38.6444 26.912 36.1765 26.912 33.5951C26.912 31.4302 27.6886 29.3454 29.0742 27.7137C28.0915 27.0769 26.9633 26.6966 25.7875 26.6098C24.3723 28.6698 23.627 31.0733 23.627 33.595C23.627 36.2967 24.4822 38.8628 26.1003 41.016C27.386 42.7275 29.0971 44.0824 31.0488 44.9345C32.6107 45.6176 34.2751 45.9638 35.9966 45.9638C42.8167 45.9638 48.3653 40.4152 48.3653 33.595C48.3652 26.7749 42.8166 21.2263 35.9965 21.2263Z" fill="white"/>
<defs>
<filter id="filter0_d_1_79" x="0.688397" y="0.617647" width="59.6232" height="60.3529" filterUnits="userSpaceOnUse" color-interpolation-filters="sRGB">
<feFlood flood-opacity="0" result="BackgroundImageFix"/>
<feColorMatrix in="SourceAlpha" type="matrix" values="0 0 0 0 0 0 0 0 0 0 0 0 0 0 0 0 0 0 127 0" result="hardAlpha"/>
<feOffset dy="0.794118"/>
<feGaussianBlur stdDeviation="1.58824"/>
<feComposite in2="hardAlpha" operator="out"/>
<feColorMatrix type="matrix" values="0 0 0 0 0 0 0 0 0 0 0 0 0 0 0 0 0 0 0.1 0"/>
<feBlend mode="normal" in2="BackgroundImageFix" result="effect1_dropShadow_1_79"/>
<feBlend mode="normal" in="SourceGraphic" in2="effect1_dropShadow_1_79" result="shape"/>
</filter>
</defs>
</svg>
