<svg width="61" height="61" viewBox="0 0 61 61" fill="none" xmlns="http://www.w3.org/2000/svg">
<g filter="url(#filter0_d_1_101)">
<rect x="3.86487" y="3" width="53.2703" height="54" rx="9.52941" fill="#D08622"/>
<rect x="4.26193" y="3.39706" width="52.4762" height="53.2059" rx="9.13235" stroke="#D08622" stroke-width="0.794118"/>
</g>
<rect x="10.0996" y="9.96462" width="40.0708" height="40.0708" fill="#D08622"/>
<rect x="10.0996" y="9.96462" width="40.0708" height="40.0708" stroke="#D08622" stroke-width="0.794118"/>
<path d="M30.7686 10.9011C35.7637 10.9011 40.464 12.8445 43.9932 16.3796H43.9922C47.5275 19.9088 49.4708 24.6082 49.4708 29.6033C49.4707 34.5981 47.5273 39.2909 43.9922 42.8259L43.9932 42.8269C40.464 46.3621 35.7637 48.3044 30.7686 48.3044C25.9298 48.3044 21.3679 46.4818 17.879 43.1541L17.545 42.8269C14.0098 39.2918 12.0665 34.5982 12.0665 29.6033C12.0665 24.6083 14.0098 19.9088 17.545 16.3796L17.879 16.0525C21.3679 12.7246 25.9296 10.9011 30.7686 10.9011Z" fill="#D08622" stroke="#D08622" stroke-width="0.0794097"/>
<path d="M24.1044 15.3479C24.279 15.378 24.8449 15.986 25.1699 18.3578C25.2 18.5745 25.3866 18.737 25.6094 18.737C25.8321 18.737 26.0187 18.5745 26.0488 18.3578C26.3739 15.986 26.9398 15.378 27.1143 15.3479C27.1806 15.3359 27.4816 15.4743 27.8668 16.2689C27.9752 16.4856 28.234 16.582 28.4568 16.4736C28.6735 16.3652 28.7698 16.1064 28.6615 15.8837C28.1618 14.8543 27.602 14.3787 26.9759 14.475C26.404 14.5653 25.9465 15.1372 25.6094 16.1846C25.2723 15.1432 24.8148 14.5714 24.2429 14.475C23.6228 14.3787 23.057 14.8483 22.5573 15.8837C22.4489 16.1004 22.5453 16.3652 22.762 16.4736C22.9847 16.582 23.2436 16.4856 23.3519 16.2689C23.7372 15.4743 24.0322 15.3479 24.1044 15.3479Z" fill="white"/>
<path d="M19.5408 24.0587C19.3 24.0768 19.0953 24.2513 19.0953 24.4921C19.0953 24.6065 19.0471 24.7209 18.9809 24.7811C18.9267 24.8292 18.8424 24.8473 18.7883 24.8292C18.722 24.8052 18.6619 24.7028 18.6438 24.5945C18.6197 24.462 18.6438 24.2935 18.722 24.0647L18.7883 23.8601C18.8485 23.6855 18.9147 23.4989 18.9508 23.3002C19.023 22.9149 18.9809 22.5598 18.8244 22.2769C18.6498 21.9638 18.3368 21.7291 17.9635 21.6448C17.6565 21.5725 17.3194 21.6026 16.9883 21.7291C16.5609 21.8916 16.2298 22.1986 16.0853 22.5718C15.9469 22.933 15.971 23.3664 16.1636 23.8239C16.1696 23.836 16.1756 23.848 16.1817 23.8661C16.1395 23.8601 16.0974 23.854 16.0552 23.854C15.2064 23.854 14.5142 24.5463 14.5142 25.3891C14.5142 26.2379 15.2064 26.9241 16.0552 26.9241C16.904 26.9241 17.5903 26.2379 17.5903 25.3891V25.3831C17.5903 25.3831 17.5903 25.3831 17.5903 25.377C17.5903 25.0219 17.5241 24.6727 17.3977 24.3477C17.3315 24.1791 17.2472 24.0166 17.1629 23.8601C17.0967 23.7397 17.0305 23.6132 16.9823 23.4868C16.88 23.246 16.8559 23.0353 16.9161 22.8909C16.9703 22.7524 17.1147 22.626 17.3134 22.5538C17.4759 22.4936 17.6385 22.4755 17.7769 22.5056C17.9033 22.5357 18.0117 22.614 18.0659 22.7043C18.1201 22.8006 18.1321 22.9571 18.096 23.1377C18.0659 23.2882 18.0177 23.4326 17.9635 23.5771C17.9395 23.6494 17.9154 23.7276 17.8913 23.7999C17.813 24.0467 17.7288 24.3778 17.7829 24.7329C17.8492 25.1603 18.114 25.5095 18.4752 25.6479C18.8364 25.7924 19.2638 25.7081 19.5709 25.4372C19.8297 25.2085 19.9802 24.8654 19.9862 24.4981C19.9802 24.2634 19.7876 24.0587 19.5408 24.0587ZM16.0552 26.0452C15.6941 26.0452 15.3931 25.7503 15.3931 25.3951C15.3931 25.0339 15.688 24.745 16.0552 24.745C16.4164 24.745 16.7054 25.0399 16.7054 25.3951C16.7114 25.7503 16.4164 26.0452 16.0552 26.0452Z" fill="white"/>
<path d="M33.6832 15.0592L34.1106 16.6605C34.1648 16.8592 34.3394 16.9856 34.538 16.9856C34.5742 16.9856 34.6163 16.9796 34.6524 16.9735C34.8872 16.9133 35.0257 16.6725 34.9655 16.4318L34.815 15.8599L36.1574 16.6364L35.7902 17.2685C35.6698 17.4792 35.742 17.7501 35.9527 17.8705C36.025 17.9126 36.0972 17.9307 36.1754 17.9307C36.3259 17.9307 36.4764 17.8524 36.5547 17.714L36.9219 17.0819L38.1259 17.7802C38.1981 17.8223 38.2704 17.8404 38.3486 17.8404C38.4991 17.8404 38.6496 17.7621 38.7279 17.6237C38.8483 17.413 38.776 17.1421 38.5653 17.0217L37.3614 16.3234L37.7286 15.6913C37.849 15.4806 37.7767 15.2097 37.566 15.0893C37.3553 14.969 37.0844 15.0412 36.9641 15.2519L36.5968 15.884L35.2544 15.1074L35.8263 14.9569C36.0611 14.8967 36.1995 14.6559 36.1393 14.4151C36.0791 14.1804 35.8383 14.0419 35.5975 14.1021L33.9963 14.5295C33.9722 14.5295 33.9481 14.5415 33.93 14.5536C33.8999 14.5656 33.8698 14.5777 33.8397 14.5957C33.7916 14.6318 33.7555 14.674 33.7254 14.7282C33.6953 14.7823 33.6772 14.8365 33.6712 14.8907C33.6591 14.9509 33.6652 15.0051 33.6832 15.0592Z" fill="white"/>
<path d="M45.8368 22.8909C45.3432 22.8909 44.9037 23.1919 44.7412 23.6313C44.6147 23.9805 44.2776 24.2152 43.9104 24.2152C43.5432 24.2152 43.2061 23.9805 43.0797 23.6313C42.9171 23.1859 42.4777 22.8909 41.9841 22.8909C41.7433 22.8909 41.5446 23.0896 41.5446 23.3303C41.5446 23.5711 41.7433 23.7698 41.9841 23.7698C42.1045 23.7698 42.2128 23.836 42.2489 23.9323C42.3633 24.2453 42.562 24.5042 42.8148 24.7029C42.58 24.9617 42.4356 25.3048 42.4356 25.6781C42.4356 26.4907 43.0977 27.1529 43.9044 27.1529C44.7111 27.1529 45.3733 26.4907 45.3733 25.6781C45.3733 25.2988 45.2288 24.9617 44.994 24.7029C45.2408 24.5042 45.4455 24.2453 45.5599 23.9323C45.596 23.836 45.7043 23.7698 45.8247 23.7698C46.0655 23.7698 46.2642 23.5711 46.2642 23.3303C46.2642 23.0896 46.0836 22.8909 45.8368 22.8909ZM44.5064 25.6841C44.5064 26.0091 44.2415 26.274 43.9164 26.274C43.5914 26.274 43.3265 26.0091 43.3265 25.6841C43.3265 25.359 43.5914 25.0941 43.9164 25.0941C44.2415 25.0941 44.5064 25.359 44.5064 25.6841Z" fill="white"/>
<path d="M42.194 34.9968H43.0549C43.2716 34.9968 43.4763 34.8764 43.5846 34.6898C43.693 34.5032 43.693 34.2805 43.5846 34.0999C43.5244 33.9976 43.4642 33.823 43.5365 33.6002C43.5906 33.4197 43.7472 33.2692 43.9338 33.221C44.1987 33.1488 44.3913 33.2511 44.4756 33.3173C44.6261 33.4317 44.7164 33.6063 44.7164 33.7989C44.7164 33.9073 44.6923 34.0036 44.6381 34.0999C44.5297 34.2805 44.5297 34.5092 44.6381 34.6958C44.7465 34.8825 44.9451 34.9968 45.1618 34.9968H46.0287C46.2695 34.9968 46.4681 34.7982 46.4681 34.5574C46.4681 34.3166 46.2695 34.1179 46.0287 34.1179H45.5712C45.5953 34.0156 45.6073 33.9073 45.6073 33.7989C45.6073 33.3294 45.3966 32.902 45.0234 32.613C44.6501 32.3301 44.1746 32.2398 43.711 32.3662C43.2355 32.4986 42.8502 32.8658 42.7057 33.3354C42.6214 33.5942 42.6094 33.8651 42.6696 34.1179H42.2121C41.9713 34.1179 41.7726 34.3166 41.7726 34.5574C41.7726 34.7982 41.9472 34.9968 42.194 34.9968Z" fill="white"/>
<path d="M42.1952 36.6343H46.0238C46.2646 36.6343 46.4633 36.4356 46.4633 36.1948C46.4633 35.954 46.2646 35.7554 46.0238 35.7554H42.1952C41.9544 35.7554 41.7557 35.954 41.7557 36.1948C41.7557 36.4356 41.9484 36.6343 42.1952 36.6343Z" fill="white"/>
<path d="M37.3729 39.9213C37.2344 39.9333 37.114 40.0116 37.0418 40.132L36.4338 41.1493L35.9883 40.6678C35.892 40.5654 35.7536 40.5173 35.6211 40.5293C35.4827 40.5413 35.3623 40.6196 35.29 40.74L34.682 41.7573L34.2366 41.2758C34.1402 41.1734 34.0018 41.1192 33.8693 41.1373C33.7309 41.1493 33.6105 41.2276 33.5382 41.348L32.6292 42.871C32.5028 43.0817 32.5751 43.3526 32.7797 43.473C32.852 43.5151 32.9302 43.5332 33.0025 43.5332C33.153 43.5332 33.2975 43.4549 33.3817 43.3165L33.9897 42.2991L34.4352 42.7807C34.5315 42.883 34.664 42.9312 34.8024 42.9191C34.9409 42.9071 35.0613 42.8289 35.1335 42.7085L35.7415 41.6911L36.187 42.1847C36.2833 42.2871 36.4218 42.3413 36.5542 42.3232C36.6927 42.3112 36.8131 42.2329 36.8853 42.1125L37.4933 41.0952L37.9388 41.5767C38.1073 41.7573 38.3842 41.7634 38.5588 41.6008C38.7394 41.4323 38.7454 41.1554 38.5829 40.9748L37.7341 40.0658C37.6438 39.9574 37.5053 39.9093 37.3729 39.9213Z" fill="white"/>
<path d="M38.1608 42.1789C38.0223 42.1909 37.902 42.2692 37.8297 42.3896L37.2217 43.4069L36.7762 42.9253C36.6799 42.823 36.5475 42.7749 36.409 42.7869C36.2706 42.7989 36.1502 42.8772 36.0779 42.9976L35.4699 44.0149L35.0245 43.5333C34.9281 43.431 34.7897 43.3768 34.6572 43.3949C34.5188 43.4069 34.3984 43.4852 34.3262 43.6056L33.4172 45.1286C33.2907 45.3393 33.363 45.6102 33.5676 45.7306C33.6399 45.7727 33.7181 45.7908 33.7904 45.7908C33.9409 45.7908 34.0854 45.7125 34.1696 45.574L34.7776 44.5567L35.2231 45.0383C35.3194 45.1406 35.4579 45.1888 35.5903 45.1767C35.7288 45.1647 35.8492 45.0864 35.9214 44.966L36.5294 43.9487L36.9749 44.4303C37.0712 44.5326 37.2097 44.5808 37.3421 44.5687C37.4806 44.5567 37.601 44.4784 37.6732 44.3581L38.2812 43.3407L38.7267 43.8223C38.8952 44.0029 39.1721 44.0089 39.3467 43.8464C39.5273 43.6778 39.5333 43.4009 39.3708 43.2203L38.522 42.3113C38.4317 42.215 38.2932 42.1608 38.1608 42.1789Z" fill="white"/>
<path d="M17.1387 33.6848C17.1387 33.3477 17.0063 33.0407 16.8016 32.8059C17.4818 32.7457 18.15 33.0347 18.7159 33.6668C18.8002 33.7631 18.9266 33.8112 19.047 33.8112C19.1493 33.8112 19.2577 33.7751 19.342 33.6969C19.5226 33.5343 19.5406 33.2574 19.3781 33.0768C18.1862 31.7404 16.5126 31.5418 15.092 32.5652C15.0799 32.5712 15.0679 32.5772 15.0619 32.5832C15.0558 32.5832 15.0558 32.5892 15.0498 32.5892L15.0438 32.5953C14.7067 32.836 14.4839 33.2333 14.4839 33.6788C14.4839 34.4132 15.0799 35.0092 15.8143 35.0092C16.5488 35.0092 17.1387 34.4192 17.1387 33.6848ZM15.3568 33.6848C15.3568 33.438 15.5555 33.2333 15.8083 33.2333C16.0551 33.2333 16.2598 33.438 16.2598 33.6848C16.2598 33.9316 16.0551 34.1363 15.8083 34.1363C15.5555 34.1363 15.3568 33.9316 15.3568 33.6848Z" fill="white"/>
<path d="M17.8922 37.5916C18.5303 37.5916 19.1805 37.3749 19.7825 36.9415C19.7885 36.9354 19.7945 36.9354 19.8005 36.9294C19.8065 36.9294 19.8065 36.9234 19.8126 36.9234C19.8186 36.9234 19.8186 36.9174 19.8186 36.9114C20.1557 36.6706 20.3784 36.2733 20.3784 35.8278C20.3784 35.0934 19.7825 34.4974 19.048 34.4974C18.3136 34.4974 17.7177 35.0934 17.7177 35.8278C17.7177 36.1649 17.8501 36.4719 18.0548 36.7067C17.3745 36.7669 16.7063 36.4779 16.1404 35.8459C15.9779 35.6653 15.701 35.6472 15.5204 35.8097C15.3398 35.9723 15.3217 36.2492 15.4843 36.4298C16.1826 37.2003 17.0314 37.5916 17.8922 37.5916ZM19.0541 35.3763C19.3009 35.3763 19.5056 35.581 19.5056 35.8278C19.5056 36.0746 19.3009 36.2793 19.0541 36.2793C18.8072 36.2793 18.6026 36.0746 18.6026 35.8278C18.6086 35.581 18.8072 35.3763 19.0541 35.3763Z" fill="white"/>
<path d="M26.4459 42.2029H26.1148C26.163 41.9019 26.2653 41.5949 26.4279 41.2879C26.5422 41.0711 26.4579 40.8063 26.2412 40.6919C26.0245 40.5775 25.7596 40.6618 25.6453 40.8785C25.4105 41.318 25.272 41.7634 25.2179 42.2089H24.6159C24.5617 41.7634 24.4172 41.324 24.1885 40.8785C24.0741 40.6618 23.8092 40.5775 23.5925 40.6919C23.3758 40.8063 23.2975 41.0711 23.4059 41.2879C23.5684 41.5949 23.6707 41.9019 23.7189 42.2029H23.3878C23.147 42.2029 22.9484 42.4015 22.9484 42.6423C22.9484 42.8831 23.147 43.0818 23.3878 43.0818H23.7069C23.6527 43.3647 23.5564 43.6536 23.4059 43.9366C23.2915 44.1533 23.3758 44.4181 23.5925 44.5325C23.6587 44.5686 23.7309 44.5807 23.7972 44.5807C23.9537 44.5807 24.1102 44.4964 24.1885 44.3459C24.4112 43.9245 24.5496 43.5031 24.6098 43.0757H25.2299C25.2901 43.4971 25.4286 43.9245 25.6513 44.3459C25.7295 44.4964 25.8861 44.5807 26.0426 44.5807C26.1148 44.5807 26.181 44.5626 26.2473 44.5325C26.464 44.4181 26.5422 44.1533 26.4339 43.9366C26.2834 43.6476 26.1871 43.3647 26.1329 43.0818H26.4519C26.6927 43.0818 26.8914 42.8831 26.8914 42.6423C26.8914 42.4015 26.6927 42.2029 26.4459 42.2029Z" fill="white"/>
<path d="M40.4379 29.667C40.4379 34.9529 36.0776 39.238 30.6989 39.238C25.3203 39.238 20.96 34.9529 20.96 29.667C20.96 24.3812 25.3203 20.0961 30.6989 20.0961C36.0776 20.0961 40.4379 24.3812 40.4379 29.667Z" fill="#D08622"/>
<path d="M30.7683 10.9486C35.7505 10.9487 40.4386 12.8863 43.9587 16.4125L44.2849 16.7455C47.6044 20.2256 49.4226 24.7764 49.4226 29.6029C49.4226 34.4295 47.6042 38.9742 44.2849 42.4594L43.9587 42.7934C40.4385 46.3196 35.7506 48.2572 30.7683 48.2572C25.9417 48.2572 21.391 46.4391 17.9109 43.1195L17.5779 42.7934C14.0518 39.2672 12.114 34.5853 12.114 29.6029C12.1141 24.6206 14.0517 19.9327 17.5779 16.4125L17.9109 16.0863C21.391 12.7668 25.9417 10.9487 30.7683 10.9486ZM30.3035 48.1723L30.7683 48.1781C30.5627 48.1781 30.3576 48.1731 30.1531 48.1664C30.2032 48.168 30.2533 48.1711 30.3035 48.1723ZM29.4001 48.1283C29.602 48.1429 29.8045 48.1523 30.0076 48.1606C29.8045 48.1523 29.602 48.1429 29.4001 48.1283ZM38.1521 37.7221C37.8701 37.9769 37.5793 38.2077 37.2781 38.4311L37.2556 38.4555L37.2156 38.4926C37.1897 38.512 37.1625 38.5228 37.1355 38.5346L37.1365 38.5356C35.4306 39.7643 33.4117 40.4726 31.2849 40.5707V47.2152C35.6238 47.0897 39.6956 45.4002 42.8533 42.4232L38.1521 37.7221ZM18.6882 42.4174C21.8459 45.4003 25.9184 47.0839 30.2576 47.2094V40.5648C28.1452 40.4669 26.1465 39.7662 24.4421 38.558C24.3966 38.5446 24.3522 38.5263 24.3123 38.4945V38.4955C24.268 38.4659 24.2383 38.4291 24.2156 38.4008C23.9317 38.189 23.6523 37.9662 23.3826 37.7231L18.6882 42.4174ZM34.4568 46.9184C34.3341 46.9443 34.2111 46.9692 34.0876 46.9926C34.3441 46.9441 34.599 46.8901 34.8523 46.8305L34.4568 46.9184ZM23.9998 45.9594C24.048 45.9793 24.0969 45.9975 24.1453 46.017C23.9721 45.9471 23.7995 45.8756 23.6287 45.8002L23.9998 45.9594ZM22.8972 45.4574C23.0179 45.5175 23.1394 45.576 23.2615 45.6332L22.8982 45.4574C22.7774 45.3973 22.6573 45.3358 22.5378 45.2729L22.8972 45.4574ZM21.8308 44.8793C21.9473 44.9477 22.0645 45.0148 22.1824 45.0805L21.8318 44.8793C21.7153 44.8109 21.5992 44.7415 21.4841 44.6703L21.8308 44.8793ZM19.6531 43.3676C20.1326 43.7565 20.629 44.1188 21.1414 44.4525L20.8035 44.226C20.4101 43.9566 20.0264 43.6703 19.6531 43.3676ZM18.575 42.4203C18.921 42.7502 19.2789 43.0635 19.6462 43.3617C19.2787 43.0634 18.9211 42.7493 18.575 42.4193V42.4203ZM17.1072 42.1869C17.1638 42.2483 17.2205 42.3097 17.2781 42.3705C17.2205 42.3098 17.1638 42.2483 17.1072 42.1869ZM16.7537 41.7934C16.8136 41.8621 16.8742 41.9304 16.9353 41.9984C16.8742 41.9304 16.8136 41.8621 16.7537 41.7934ZM13.156 30.1195C13.2815 34.4581 14.9705 38.5303 17.947 41.6879L22.6472 36.9877C20.9162 35.0898 19.9186 32.6848 19.8005 30.1195H13.156ZM41.7361 30.1195C41.618 32.685 40.6197 35.0897 38.8884 36.9877L43.5876 41.6869C46.5644 38.5293 48.2541 34.4583 48.3796 30.1195H41.7361ZM16.4333 41.4164C16.4731 41.4645 16.5132 41.5122 16.5535 41.56C16.5132 41.5122 16.4731 41.4645 16.4333 41.4164ZM29.8308 40.4574C29.8832 40.4619 29.9355 40.4664 29.988 40.4701C29.9355 40.4664 29.8832 40.4619 29.8308 40.4574ZM29.5447 40.4311C29.5801 40.4351 29.6157 40.4372 29.6511 40.4408C29.5993 40.4355 29.5475 40.4303 29.4958 40.4242L29.5447 40.4311ZM28.3816 40.2348C28.5089 40.2635 28.6368 40.2897 28.7654 40.3139L28.3816 40.2338C28.2543 40.2051 28.1276 40.1743 28.0017 40.141L28.3816 40.2348ZM30.4587 20.1606C25.175 20.1608 20.8916 24.4443 20.8914 29.7279C20.8914 35.0118 25.1748 39.296 30.4587 39.2963C35.7429 39.2963 40.0271 35.0119 40.0271 29.7279C40.0269 24.4441 35.7427 20.1606 30.4587 20.1606ZM20.365 32.8783C20.411 33.0246 20.4603 33.1698 20.5125 33.3139C20.4594 33.1673 20.4098 33.0194 20.363 32.8705L20.365 32.8783ZM41.5222 31.3979C41.5443 31.2644 41.5635 31.1302 41.5808 30.9955C41.5634 31.1302 41.5443 31.2643 41.5222 31.3979ZM41.5935 30.8822C41.6052 30.7835 41.6157 30.6846 41.6248 30.5854C41.6159 30.6846 41.6052 30.7835 41.5935 30.8822ZM49.3259 28.8109C49.3369 29.074 49.3435 29.338 49.3435 29.6029L49.3386 29.1537C49.3359 29.0393 49.3307 28.925 49.3259 28.8109ZM19.8962 28.7934L19.8748 29.1654L19.8972 28.7943C19.9061 28.6768 19.9159 28.5595 19.9285 28.4428C19.9159 28.5592 19.9051 28.6761 19.8962 28.7934ZM17.947 17.517C14.9702 20.6688 13.2816 24.7416 13.156 29.0863H19.7996C19.8471 28.1151 20.0183 27.1667 20.3044 26.2641C20.3046 26.2594 20.3049 26.2539 20.3054 26.2484C20.3063 26.2405 20.3099 26.2291 20.3142 26.2162H20.3132C20.3214 26.1838 20.336 26.1584 20.3474 26.141C20.8286 24.7016 21.6013 23.367 22.6472 22.2172L17.947 17.517ZM38.8943 22.2172C40.6201 24.1152 41.618 26.5207 41.7361 29.0863H48.3865C48.2609 24.7473 46.5716 20.6747 43.5945 17.517L38.8943 22.2172ZM20.4197 26.1752C20.4077 26.1931 20.3964 26.2118 20.3904 26.2357L20.4207 26.1752C20.4812 25.9935 20.5461 25.8133 20.616 25.6352V25.6342C20.5459 25.8127 20.4804 25.9931 20.4197 26.1752ZM20.9617 24.8451C20.9198 24.9312 20.8791 25.0178 20.8396 25.1049L20.9626 24.8451C21.0046 24.7587 21.0473 24.6726 21.0916 24.5873L20.9617 24.8451ZM21.3699 24.0834C21.3212 24.1662 21.2737 24.2495 21.2273 24.3334L21.3708 24.0834C21.4196 24.0005 21.4693 23.918 21.5203 23.8363L21.3699 24.0834ZM22.0398 23.0795C21.9776 23.1626 21.9158 23.2458 21.8562 23.3305C21.9158 23.2458 21.9777 23.1627 22.0398 23.0795ZM22.1863 22.8852C22.1694 22.9067 22.1532 22.9289 22.1365 22.9506C22.2125 22.8518 22.2901 22.754 22.3699 22.6576L22.1863 22.8852ZM46.447 21.3666C46.5098 21.4858 46.5716 21.6055 46.6316 21.726L46.448 21.3666C46.3851 21.2473 46.3203 21.129 46.2546 21.0111L46.447 21.3666ZM38.1619 21.5912L37.7976 21.269L37.7996 21.2709C37.9223 21.375 38.043 21.4823 38.1619 21.5922L42.9734 16.7807L42.9724 16.7797L38.1619 21.5912ZM23.7371 21.2709C23.6163 21.3729 23.4965 21.4767 23.3796 21.5844L23.3806 21.5854C23.4975 21.4777 23.6164 21.3729 23.7371 21.2709ZM31.2908 18.64C33.8559 18.758 36.2609 19.7508 38.1589 21.4818L42.8591 16.7816C39.7075 13.7993 35.6354 12.1151 31.2908 11.9897V18.64ZM30.2517 11.9897C25.9069 12.1152 21.8342 13.8047 18.6824 16.7758L23.3826 21.476C25.2806 19.7504 27.6862 18.7522 30.2517 18.6342V11.9897ZM24.0828 20.9906C23.9757 21.0739 23.8697 21.159 23.7654 21.2465C23.8697 21.1589 23.9757 21.0739 24.0828 20.9906ZM24.5085 20.6742C24.3867 20.7599 24.2669 20.849 24.1482 20.9398C24.3944 20.7512 24.6475 20.5736 24.907 20.4076L24.5085 20.6742ZM26.0154 19.7865C25.9405 19.8229 25.8658 19.8598 25.7917 19.8979C25.8658 19.8598 25.9405 19.8229 26.0154 19.7865ZM26.3113 19.6479C26.2666 19.6679 26.2228 19.6897 26.1785 19.7104C26.2228 19.6897 26.2666 19.6679 26.3113 19.6479ZM26.5974 19.5248C26.5594 19.5405 26.5219 19.5575 26.4841 19.5736C26.5413 19.5492 26.5984 19.5248 26.656 19.5014L26.5974 19.5248ZM27.9509 19.0668C27.7971 19.1077 27.6445 19.1521 27.4929 19.1996L27.9519 19.0668C28.1058 19.0259 28.2608 18.9887 28.4167 18.9545L27.9509 19.0668ZM43.9939 17.8363C43.9554 17.7932 43.9176 17.7493 43.8787 17.7065L43.5974 17.4037C43.7325 17.5458 43.864 17.6906 43.9939 17.8363ZM41.8562 15.7992C41.7829 15.74 41.7077 15.6833 41.6335 15.6254C41.7077 15.6833 41.7829 15.74 41.8562 15.7992ZM19.0232 15.2104C18.9218 15.2935 18.8213 15.3778 18.7214 15.4633C18.8213 15.3778 18.9218 15.2935 19.0232 15.2104ZM41.324 15.3871C41.2506 15.3323 41.1764 15.2786 41.1023 15.225C41.1765 15.2786 41.2505 15.3323 41.324 15.3871ZM19.3582 14.9398C19.3277 14.9636 19.2986 14.9891 19.2683 15.0131C19.4184 14.8941 19.5691 14.7764 19.7224 14.6625L19.3582 14.9398ZM40.7673 14.9887C40.6954 14.9392 40.6231 14.8905 40.5505 14.8422C40.6231 14.8905 40.6954 14.9392 40.7673 14.9887ZM20.8474 13.8891C20.7198 13.97 20.5933 14.0529 20.4675 14.1371L20.8484 13.8891C20.9761 13.8081 21.1046 13.7285 21.2341 13.6508L20.8474 13.8891ZM22.0222 13.2035C21.8892 13.2747 21.7571 13.3478 21.6257 13.4223L22.0222 13.2045C22.1553 13.1333 22.2889 13.0633 22.4236 12.9955L22.0222 13.2035ZM36.0339 12.6938C36.1626 12.7336 36.2911 12.7741 36.4187 12.8168L36.0349 12.6938C35.9059 12.6538 35.7763 12.6155 35.6462 12.5785L36.0339 12.6938ZM23.24 12.6088C23.1022 12.6699 22.9652 12.7328 22.8289 12.7973L23.24 12.6098C23.3777 12.5487 23.5159 12.4887 23.655 12.4311L23.24 12.6088ZM24.9255 11.9594C24.7823 12.0066 24.6398 12.0561 24.4978 12.1068L24.9255 11.9604C25.0685 11.9132 25.212 11.8673 25.3562 11.8236L24.9255 11.9594ZM29.5046 11.9477C29.4525 11.9513 29.4005 11.9562 29.3484 11.9604C29.5373 11.9454 29.7267 11.9322 29.9167 11.9232L29.5046 11.9477Z" fill="white"/>
<defs>
<filter id="filter0_d_1_101" x="0.688397" y="0.617647" width="59.6232" height="60.3529" filterUnits="userSpaceOnUse" color-interpolation-filters="sRGB">
<feFlood flood-opacity="0" result="BackgroundImageFix"/>
<feColorMatrix in="SourceAlpha" type="matrix" values="0 0 0 0 0 0 0 0 0 0 0 0 0 0 0 0 0 0 127 0" result="hardAlpha"/>
<feOffset dy="0.794118"/>
<feGaussianBlur stdDeviation="1.58824"/>
<feComposite in2="hardAlpha" operator="out"/>
<feColorMatrix type="matrix" values="0 0 0 0 0 0 0 0 0 0 0 0 0 0 0 0 0 0 0.1 0"/>
<feBlend mode="normal" in2="BackgroundImageFix" result="effect1_dropShadow_1_101"/>
<feBlend mode="normal" in="SourceGraphic" in2="effect1_dropShadow_1_101" result="shape"/>
</filter>
</defs>
</svg>
