<svg width="61" height="61" viewBox="0 0 61 61" fill="none" xmlns="http://www.w3.org/2000/svg">
<g filter="url(#filter0_d_1_87)">
<rect x="3.86487" y="3" width="53.2703" height="54" rx="9.52941" fill="#BC148D"/>
</g>
<path d="M38.0582 34.4058C37.2591 35.5759 36.1711 36.5195 34.8999 37.1453C33.6287 37.7712 32.2173 38.0578 30.8027 37.9776C29.3881 37.8974 28.0182 37.4529 26.8259 36.6874C25.6335 35.9218 24.6593 34.8612 23.9976 33.6083C23.3359 32.3554 23.0092 30.9527 23.0492 29.5364C23.0891 28.12 23.4945 26.738 24.2258 25.5245C24.9571 24.3109 25.9896 23.3068 27.2232 22.6098C28.4568 21.9127 29.8496 21.5462 31.2665 21.5459C31.5839 21.5209 31.9028 21.5209 32.2203 21.5459C31.6188 22.7524 31.2946 24.078 31.2715 25.4258C31.2483 26.7737 31.5267 28.1096 32.0863 29.336C32.6459 30.5624 33.4725 31.6483 34.5058 32.514C35.5391 33.3798 36.7528 34.0037 38.0582 34.34V34.4058Z" fill="white"/>
<path d="M47.7111 25.6571C47.7111 27.1207 47.2771 28.5515 46.4639 29.7684C45.6508 30.9854 44.495 31.9339 43.1428 32.494C41.7906 33.0541 40.3027 33.2007 38.8672 32.9151C37.4317 32.6296 36.1131 31.9248 35.0782 30.8898C34.0432 29.8549 33.3384 28.5363 33.0529 27.1008C32.7674 25.6653 32.9139 24.1774 33.474 22.8252C34.0341 21.473 34.9826 20.3172 36.1996 19.5041C37.4165 18.691 38.8473 18.2569 40.3109 18.2569C40.4804 18.2406 40.6511 18.2406 40.8207 18.2569H40.9358C40.3643 19.201 40.1258 20.3094 40.2585 21.405C40.3911 22.5006 40.8873 23.52 41.6677 24.3004C42.448 25.0807 43.4675 25.5769 44.563 25.7096C45.6586 25.8422 46.767 25.6037 47.7111 25.0322C47.7182 25.0703 47.7182 25.1093 47.7111 25.1473C47.7274 25.3169 47.7274 25.4876 47.7111 25.6571Z" fill="white"/>
<path d="M31.2663 19.9014C30.8302 19.9014 30.4119 19.7281 30.1035 19.4197C29.7951 19.1113 29.6218 18.6931 29.6218 18.2569V14.9679C29.6218 14.5318 29.7951 14.1135 30.1035 13.8051C30.4119 13.4967 30.8302 13.3235 31.2663 13.3235C31.7025 13.3235 32.1207 13.4967 32.4291 13.8051C32.7375 14.1135 32.9108 14.5318 32.9108 14.9679V18.2569C32.9108 18.6931 32.7375 19.1113 32.4291 19.4197C32.1207 19.7281 31.7025 19.9014 31.2663 19.9014Z" fill="white"/>
<path d="M41.7253 41.8717C41.2938 41.8699 40.8804 41.6986 40.5741 41.3948L38.2389 39.0761C37.9293 38.7664 37.7553 38.3464 37.7553 37.9085C37.7553 37.4706 37.9293 37.0506 38.2389 36.7409C38.5486 36.4313 38.9686 36.2573 39.4065 36.2573C39.8445 36.2573 40.2644 36.4313 40.5741 36.7409L42.8928 39.0761C43.1991 39.3842 43.371 39.801 43.371 40.2355C43.371 40.6699 43.1991 41.0867 42.8928 41.3948C42.7392 41.5472 42.5569 41.6678 42.3566 41.7496C42.1562 41.8315 41.9417 41.873 41.7253 41.8717Z" fill="white"/>
<path d="M31.2663 46.2131C30.8302 46.2131 30.4119 46.0399 30.1035 45.7315C29.7951 45.4231 29.6218 45.0048 29.6218 44.5687V41.2797C29.6218 40.8435 29.7951 40.4253 30.1035 40.1169C30.4119 39.8084 30.8302 39.6352 31.2663 39.6352C31.7025 39.6352 32.1207 39.8084 32.4291 40.1169C32.7375 40.4253 32.9108 40.8435 32.9108 41.2797V44.5687C32.9108 45.0048 32.7375 45.4231 32.4291 45.7315C32.1207 46.0399 31.7025 46.2131 31.2663 46.2131Z" fill="white"/>
<path d="M20.8074 41.8717C20.591 41.873 20.3764 41.8315 20.1761 41.7496C19.9757 41.6678 19.7935 41.5472 19.6398 41.3948C19.3335 41.0867 19.1616 40.6699 19.1616 40.2355C19.1616 39.801 19.3335 39.3842 19.6398 39.0761L21.9586 36.7409C22.2682 36.4313 22.6882 36.2573 23.1261 36.2573C23.5641 36.2573 23.9841 36.4313 24.2937 36.7409C24.6034 37.0506 24.7773 37.4706 24.7773 37.9085C24.7773 38.3464 24.6034 38.7664 24.2937 39.0761L21.9586 41.3948C21.6522 41.6986 21.2388 41.8699 20.8074 41.8717Z" fill="white"/>
<path d="M19.7549 31.4128H16.466C16.0298 31.4128 15.6115 31.2396 15.3031 30.9312C14.9947 30.6228 14.8215 30.2045 14.8215 29.7683C14.8215 29.3322 14.9947 28.9139 15.3031 28.6055C15.6115 28.2971 16.0298 28.1238 16.466 28.1238H19.7549C20.1911 28.1238 20.6094 28.2971 20.9178 28.6055C21.2262 28.9139 21.3994 29.3322 21.3994 29.7683C21.3994 30.2045 21.2262 30.6228 20.9178 30.9312C20.6094 31.2396 20.1911 31.4128 19.7549 31.4128Z" fill="white"/>
<path d="M23.1261 23.2726C22.9097 23.2738 22.6952 23.2324 22.4948 23.1505C22.2944 23.0687 22.1122 22.9481 21.9585 22.7957L19.6398 20.4605C19.3704 20.1459 19.2296 19.7413 19.2456 19.3274C19.2616 18.9135 19.4332 18.5209 19.726 18.228C20.0189 17.9352 20.4115 17.7636 20.8254 17.7476C21.2393 17.7316 21.6439 17.8724 21.9585 18.1418L24.2937 20.4605C24.4478 20.6134 24.5702 20.7953 24.6537 20.9957C24.7372 21.1961 24.7801 21.411 24.7801 21.6281C24.7801 21.8452 24.7372 22.0601 24.6537 22.2605C24.5702 22.4609 24.4478 22.6428 24.2937 22.7957C24.14 22.9481 23.9578 23.0687 23.7575 23.1505C23.5571 23.2324 23.3425 23.2738 23.1261 23.2726Z" fill="white"/>
<defs>
<filter id="filter0_d_1_87" x="0.688397" y="0.617647" width="59.6232" height="60.3529" filterUnits="userSpaceOnUse" color-interpolation-filters="sRGB">
<feFlood flood-opacity="0" result="BackgroundImageFix"/>
<feColorMatrix in="SourceAlpha" type="matrix" values="0 0 0 0 0 0 0 0 0 0 0 0 0 0 0 0 0 0 127 0" result="hardAlpha"/>
<feOffset dy="0.794118"/>
<feGaussianBlur stdDeviation="1.58824"/>
<feComposite in2="hardAlpha" operator="out"/>
<feColorMatrix type="matrix" values="0 0 0 0 0 0 0 0 0 0 0 0 0 0 0 0 0 0 0.1 0"/>
<feBlend mode="normal" in2="BackgroundImageFix" result="effect1_dropShadow_1_87"/>
<feBlend mode="normal" in="SourceGraphic" in2="effect1_dropShadow_1_87" result="shape"/>
</filter>
</defs>
</svg>
