<svg width="18" height="19" viewBox="0 0 18 19" fill="none" xmlns="http://www.w3.org/2000/svg">
<path d="M2.83322 9.93333C2.1222 8.69354 1.77889 7.68117 1.57188 6.65497C1.26572 5.13724 1.96636 3.65467 3.12704 2.70867C3.61759 2.30885 4.17992 2.44545 4.47 2.96586L5.12489 4.14074C5.64397 5.07199 5.90351 5.53761 5.85203 6.03126C5.80055 6.5249 5.45053 6.92696 4.75048 7.73107L2.83322 9.93333ZM2.83322 9.93333C4.27238 12.4428 6.53088 14.7025 9.04323 16.1433M9.04323 16.1433C10.283 16.8544 11.2954 17.1977 12.3216 17.4047C13.8393 17.7108 15.3219 17.0102 16.2679 15.8495C16.6677 15.359 16.5311 14.7966 16.0107 14.5066L14.8358 13.8517C13.9046 13.3326 13.439 13.0731 12.9453 13.1245C12.4517 13.176 12.0496 13.526 11.2455 14.2261L9.04323 16.1433Z" stroke="#0054DC" stroke-linejoin="round"/>
</svg>
