<svg width="18" height="19" viewBox="0 0 18 19" fill="none" xmlns="http://www.w3.org/2000/svg">
<path d="M16.5 9.6516C16.5 13.614 13.1417 16.8266 9 16.8266C8.51302 16.8273 8.02743 16.7822 7.54906 16.6924C7.20474 16.6277 7.03259 16.5954 6.9124 16.6138C6.79221 16.6321 6.62188 16.7227 6.28124 16.9039C5.3176 17.4163 4.19396 17.5973 3.11333 17.3963C3.52406 16.8911 3.80456 16.285 3.92833 15.6351C4.00333 15.2377 3.8175 14.8515 3.53917 14.5689C2.275 13.2852 1.5 11.5554 1.5 9.6516C1.5 5.68924 4.85833 2.47656 9 2.47656C13.1417 2.47656 16.5 5.68924 16.5 9.6516Z" stroke="#0054DC" stroke-linejoin="round"/>
<path d="M8.99664 9.97656H9.00336M11.9933 9.97656H12M6 9.97656H6.00673" stroke="#0054DC" stroke-width="1.5" stroke-linecap="round" stroke-linejoin="round"/>
</svg>
