<svg width="25" height="24" viewBox="0 0 25 24" fill="none" xmlns="http://www.w3.org/2000/svg">
<path d="M7.50027 2C6.20009 2.12853 5.32491 2.41902 4.67169 3.07554C3.50006 4.25309 3.50006 6.14832 3.50006 9.93879V13.9592C3.50006 17.7497 3.50006 19.6449 4.67169 20.8225C5.84333 22 7.72904 22 11.5005 22H13.5006C17.272 22 19.1577 22 20.3294 20.8225C21.3927 19.7538 21.491 18.1056 21.5001 14.9766" stroke="#75757C" stroke-width="1.5" stroke-linecap="round" stroke-linejoin="round"/>
<path d="M12.5068 6.83559C12.416 6.43146 12.0148 6.17744 11.6107 6.26824C11.2065 6.35904 10.9525 6.76027 11.0433 7.16441L12.5068 6.83559ZM12.5894 10.6246L13.3212 10.4602L12.5894 10.6246ZM20.31 7.23042C20.4027 6.82673 20.1507 6.42428 19.747 6.33154C19.3433 6.2388 18.9408 6.49088 18.8481 6.89458L20.31 7.23042ZM18.7607 10.6246L18.0298 10.4567L18.029 10.4602L18.7607 10.6246ZM12.9887 11.2527L13.4142 10.6352H13.4142L12.9887 11.2527ZM18.3615 11.2527L18.787 11.8703V11.8703L18.3615 11.2527ZM22.7084 5.76017C22.7084 5.34595 22.3726 5.01017 21.9584 5.01017C21.5442 5.01017 21.2084 5.34595 21.2084 5.76017H22.7084ZM21.2084 10.4375C21.2084 10.8517 21.5442 11.1875 21.9584 11.1875C22.3726 11.1875 22.7084 10.8517 22.7084 10.4375H21.2084ZM9.50006 5.125H10.2501C10.2501 5.26448 10.1981 5.34501 10.1972 5.34653C10.1929 5.35348 10.2046 5.33354 10.2524 5.28702C10.3478 5.19404 10.5117 5.06693 10.7502 4.91249C11.2214 4.60742 11.8828 4.26001 12.6018 3.92944C13.3173 3.60043 14.0675 3.29833 14.7072 3.08022C15.0273 2.97107 15.3119 2.88565 15.5458 2.82834C15.7925 2.76791 15.9387 2.75 16.0001 2.75V2V1.25C15.7537 1.25 15.466 1.30354 15.1889 1.37142C14.899 1.44243 14.57 1.54218 14.2231 1.66048C13.5286 1.89727 12.7307 2.21919 11.9751 2.5666C11.2229 2.91245 10.4902 3.29388 9.93496 3.65337C9.66028 3.83121 9.40293 4.02031 9.20537 4.21287C9.10661 4.30913 9.00396 4.42431 8.92187 4.55688C8.84315 4.68403 8.75006 4.88069 8.75006 5.125H9.50006ZM22.5001 5.125H23.2501C23.2501 4.88069 23.157 4.68403 23.0782 4.55688C22.9962 4.42431 22.8935 4.30913 22.7948 4.21287C22.5972 4.02031 22.3398 3.83121 22.0652 3.65337C21.5099 3.29388 20.7772 2.91245 20.025 2.5666C19.2694 2.21919 18.4715 1.89727 17.7771 1.66048C17.4301 1.54218 17.1011 1.44243 16.8112 1.37142C16.5341 1.30354 16.2464 1.25 16.0001 1.25V2V2.75C16.0615 2.75 16.2077 2.76791 16.4543 2.82834C16.6882 2.88565 16.9729 2.97107 17.293 3.08022C17.9327 3.29833 18.6828 3.60043 19.3984 3.92944C20.1173 4.26001 20.7787 4.60742 21.2499 4.91249C21.4885 5.06693 21.6524 5.19404 21.7478 5.28702C21.7955 5.33354 21.8072 5.35348 21.8029 5.34653C21.802 5.34501 21.7501 5.26448 21.7501 5.125H22.5001ZM22.5001 5.125H21.7501C21.7501 4.98552 21.802 4.90499 21.8029 4.90347C21.8072 4.89652 21.7955 4.91646 21.7478 4.96298C21.6524 5.05596 21.4885 5.18308 21.2499 5.33751C20.7787 5.64258 20.1173 5.98999 19.3984 6.32056C18.6828 6.64957 17.9327 6.95167 17.293 7.16978C16.9729 7.27893 16.6882 7.36436 16.4543 7.42166C16.2077 7.48209 16.0615 7.5 16.0001 7.5V8.25V9C16.2464 9 16.5341 8.94646 16.8112 8.87858C17.1011 8.80757 17.4301 8.70782 17.7771 8.58952C18.4715 8.35273 19.2694 8.03081 20.025 7.6834C20.7772 7.33755 21.5099 6.95612 22.0652 6.59663C22.3398 6.41879 22.5972 6.22969 22.7948 6.03713C22.8935 5.94087 22.9962 5.82569 23.0782 5.69312C23.157 5.56597 23.2501 5.36931 23.2501 5.125H22.5001ZM9.50006 5.125H8.75006C8.75006 5.36931 8.84315 5.56597 8.92187 5.69312C9.00396 5.82569 9.10661 5.94087 9.20537 6.03713C9.40293 6.22969 9.66028 6.41879 9.93496 6.59663C10.4902 6.95612 11.2229 7.33755 11.9751 7.6834C12.7307 8.03081 13.5286 8.35273 14.2231 8.58952C14.57 8.70782 14.899 8.80757 15.1889 8.87858C15.466 8.94646 15.7537 9 16.0001 9V8.25V7.5C15.9387 7.5 15.7925 7.48209 15.5458 7.42166C15.3119 7.36436 15.0273 7.27893 14.7072 7.16978C14.0675 6.95167 13.3173 6.64957 12.6018 6.32056C11.8828 5.98999 11.2214 5.64258 10.7502 5.33751C10.5117 5.18308 10.3478 5.05596 10.2524 4.96298C10.2046 4.91646 10.1929 4.89652 10.1972 4.90347C10.1981 4.90499 10.2501 4.98552 10.2501 5.125H9.50006ZM11.7751 7L11.0433 7.16441L11.8576 10.789L12.5894 10.6246L13.3212 10.4602L12.5068 6.83559L11.7751 7ZM19.579 7.0625L18.8481 6.89458L18.0298 10.4567L18.7607 10.6246L19.4917 10.7925L20.31 7.23042L19.579 7.0625ZM12.9887 11.2527L12.5631 11.8703C13.4408 12.4751 14.5818 12.75 15.6751 12.75C16.7684 12.75 17.9093 12.4751 18.787 11.8703L18.3615 11.2527L17.9359 10.6352C17.3677 11.0267 16.5452 11.25 15.6751 11.25C14.8049 11.25 13.9824 11.0267 13.4142 10.6352L12.9887 11.2527ZM18.7607 10.6246L18.029 10.4602C18.0037 10.5725 17.9587 10.6195 17.9359 10.6352L18.3615 11.2527L18.787 11.8703C19.1937 11.5901 19.4062 11.1732 19.4925 10.789L18.7607 10.6246ZM12.5894 10.6246L11.8576 10.789C11.944 11.1732 12.1565 11.5901 12.5631 11.8703L12.9887 11.2527L13.4142 10.6352C13.3914 10.6195 13.3464 10.5725 13.3212 10.4602L12.5894 10.6246ZM21.9584 5.76017H21.2084V10.4375H21.9584H22.7084V5.76017H21.9584Z" fill="#75757C"/>
</svg>
