<svg width="24" height="24" viewBox="0 0 24 24" fill="none" xmlns="http://www.w3.org/2000/svg">
<path d="M18.2001 23H6.50006C4.02506 23 2.00006 20.975 2.00006 18.5V18.35L2.45006 5.85C2.52506 3.375 4.55006 1.5 6.95006 1.5H17.7501C20.1501 1.5 22.1751 3.375 22.2501 5.85L22.7001 18.35C22.7751 19.55 22.3251 20.675 21.5001 21.575C20.6751 22.475 19.5501 23 18.3501 23C18.3501 23 18.2751 23 18.2001 23ZM6.95006 3C5.30006 3 4.02506 4.275 3.95006 5.85L3.50006 18.5C3.50006 20.15 4.85006 21.5 6.50006 21.5H18.3501C19.1751 21.5 19.9251 21.125 20.4501 20.525C20.9751 19.925 21.2751 19.175 21.2751 18.35L20.8251 5.85C20.7501 4.2 19.4751 3 17.8251 3H6.95006Z" fill="#75757C"/>
<path d="M12.2501 10C9.32506 10 7.00006 7.675 7.00006 4.75C7.00006 4.3 7.30006 4 7.75006 4C8.20006 4 8.50006 4.3 8.50006 4.75C8.50006 6.85 10.1501 8.5 12.2501 8.5C14.3501 8.5 16.0001 6.85 16.0001 4.75C16.0001 4.3 16.3001 4 16.7501 4C17.2001 4 17.5001 4.3 17.5001 4.75C17.5001 7.675 15.1751 10 12.2501 10Z" fill="#75757C"/>
</svg>
