<svg width="21" height="22" viewBox="0 0 21 22" fill="none" xmlns="http://www.w3.org/2000/svg">
<path d="M1.04652 13.7696C0.83387 15.1636 1.7846 16.1312 2.94866 16.6134C7.41141 18.4622 13.6218 18.4622 18.0845 16.6134C19.2486 16.1312 20.1993 15.1636 19.9867 13.7696C19.856 12.9129 19.2098 12.1995 18.731 11.5029C18.1039 10.5793 18.0416 9.57183 18.0415 8.5C18.0415 4.35786 14.6725 1 10.5166 1C6.36073 1 2.99173 4.35786 2.99173 8.5C2.99164 9.57183 2.92933 10.5793 2.30221 11.5029C1.82344 12.1995 1.17721 12.9129 1.04652 13.7696Z" stroke="#393F43" stroke-width="1.5" stroke-linecap="round" stroke-linejoin="round"/>
<path d="M6.5166 18C6.97509 19.7252 8.59213 21 10.5166 21C12.4411 21 14.0581 19.7252 14.5166 18" stroke="#393F43" stroke-width="1.5" stroke-linecap="round" stroke-linejoin="round"/>
</svg>
