<svg width="24" height="22" viewBox="0 0 24 22" fill="none" xmlns="http://www.w3.org/2000/svg">
<path fill-rule="evenodd" clip-rule="evenodd" d="M0.75 3.23089H11.9265C11.8777 2.99323 11.8514 2.74747 11.8503 2.49589L11.8504 2.47484C11.8507 2.22017 11.8768 1.97141 11.9259 1.73094H0.75C0.335672 1.73094 0 2.06656 0 2.48094C0 2.89531 0.335625 3.23098 0.75 3.23089ZM10.7542 10.9978V11.0072C10.7504 12.2908 9.70284 13.335 8.41969 13.335C7.1377 13.335 6.09014 12.2919 6.08466 11.0093L6.0847 10.9962C6.0863 9.71023 7.13325 8.66497 8.41969 8.66497C9.70505 8.66492 10.7514 9.70972 10.7542 10.9945V10.9978ZM23.25 10.25H12.074C12.123 10.4896 12.1492 10.7375 12.1497 10.9913V10.9965V11.0114C12.149 11.2643 12.1228 11.5113 12.0737 11.75L23.25 11.75C23.6644 11.75 24 11.4144 24 11C24 10.5856 23.6644 10.25 23.25 10.25ZM4.76484 10.25H0.75C0.335672 10.25 0 10.5857 0 11C0 11.4144 0.335625 11.75 0.75 11.75L4.76545 11.75C4.71656 11.5123 4.69027 11.2665 4.68919 11.015L4.68923 10.9939C4.68956 10.7392 4.71563 10.4905 4.76484 10.25ZM15.5803 21.854C14.295 21.854 13.2486 20.8093 13.2458 19.5245V19.5212C13.2458 19.518 13.2458 19.5152 13.2458 19.5119C13.2497 18.2282 14.2972 17.184 15.5803 17.184C16.8623 17.184 17.9098 18.2271 17.9153 19.5097L17.9153 19.5229C17.9137 20.8087 16.8667 21.8541 15.5803 21.854ZM23.25 18.7691H19.2351C19.2841 19.0087 19.3103 19.2566 19.3108 19.5103V19.5155V19.5305C19.31 19.7833 19.2838 20.0302 19.2348 20.269H23.25C23.6644 20.269 24 19.9334 24 19.519C24 19.1047 23.6644 18.7691 23.25 18.7691ZM11.9259 18.7691H0.75C0.335672 18.7691 0 19.1047 0 19.5191C0 19.9335 0.335625 20.2691 0.75 20.2691H11.9265C11.8777 20.0314 11.8514 19.7856 11.8503 19.534L11.8504 19.513C11.8507 19.2583 11.8768 19.0095 11.9259 18.7691ZM13.2458 2.48314C13.2458 2.47977 13.2458 2.47709 13.2458 2.47377C13.2497 1.19005 14.2972 0.145906 15.5803 0.145906C16.8623 0.14586 17.9098 1.18902 17.9153 2.47161L17.9153 2.48473C17.9131 3.77009 16.8667 4.81597 15.5803 4.81597C14.295 4.81597 13.2485 3.77117 13.2458 2.48642V2.48314ZM19.2348 3.23098L23.25 3.23089C23.6644 3.23089 24 2.89531 24 2.48094C24 2.06652 23.6644 1.73094 23.25 1.73094H19.2351C19.2841 1.97056 19.3103 2.21844 19.3108 2.47217V2.47738V2.49233C19.3101 2.74522 19.2839 2.99216 19.2348 3.23098Z" fill="black"/>
</svg>
