<svg width="25" height="24" viewBox="0 0 25 24" fill="none" xmlns="http://www.w3.org/2000/svg">
<path d="M9.49953 22L9.2489 18.4911C9.11415 16.6046 10.6082 15 12.4995 15C14.3908 15 15.8849 16.6046 15.7502 18.4911L15.4995 22" stroke="#75757C" stroke-width="1.5"/>
<path d="M2.8516 13.2135C2.49858 10.9162 2.32207 9.76763 2.75638 8.74938C3.19068 7.73112 4.15424 7.03443 6.08135 5.64106L7.5212 4.6C9.9185 2.86667 11.1172 2 12.5002 2C13.8833 2 15.0819 2.86667 17.4792 4.6L18.9191 5.64106C20.8462 7.03443 21.8097 7.73112 22.244 8.74938C22.6784 9.76763 22.5018 10.9162 22.1488 13.2135L21.8478 15.1724C21.3473 18.4289 21.0971 20.0572 19.9292 21.0286C18.7613 22 17.0539 22 13.639 22H11.3614C7.94655 22 6.23912 22 5.07121 21.0286C3.9033 20.0572 3.65308 18.4289 3.15264 15.1724L2.8516 13.2135Z" stroke="#75757C" stroke-width="1.5" stroke-linejoin="round"/>
</svg>
