<svg width="25" height="25" viewBox="0 0 25 25" fill="none" xmlns="http://www.w3.org/2000/svg">
<path d="M21.9241 7.26953C21.9241 8.92639 20.5809 10.2695 18.9241 10.2695C17.2672 10.2695 15.9241 8.92639 15.9241 7.26953C15.9241 5.61268 17.2672 4.26953 18.9241 4.26953C20.5809 4.26953 21.9241 5.61268 21.9241 7.26953Z" stroke="#FCFCFC" stroke-width="1.5"/>
<path d="M9.92407 12.7695C9.92407 14.4264 8.58093 15.7695 6.92407 15.7695C5.26722 15.7695 3.92407 14.4264 3.92407 12.7695C3.92407 11.1127 5.26722 9.76953 6.92407 9.76953C8.58093 9.76953 9.92407 11.1127 9.92407 12.7695Z" stroke="#FCFCFC" stroke-width="1.5"/>
<path d="M21.9241 18.2695C21.9241 19.9264 20.5809 21.2695 18.9241 21.2695C17.2672 21.2695 15.9241 19.9264 15.9241 18.2695C15.9241 16.6127 17.2672 15.2695 18.9241 15.2695C20.5809 15.2695 21.9241 16.6127 21.9241 18.2695Z" stroke="#FCFCFC" stroke-width="1.5"/>
<path d="M9.65259 11.5193L16.1526 8.51984M9.65259 14.0198L16.1526 17.0193" stroke="#FCFCFC" stroke-width="1.5"/>
</svg>
