<svg width="24" height="25" viewBox="0 0 24 25" fill="none" xmlns="http://www.w3.org/2000/svg">
<g clip-path="url(#clip0_1_604)">
<path fill-rule="evenodd" clip-rule="evenodd" d="M14.4216 22.7842C14.4216 21.9547 13.7491 21.2822 12.9196 21.2822H11.0804C10.6821 21.2822 10.3 21.4405 10.0184 21.7221C9.73669 22.0038 9.57844 22.3858 9.57844 22.7842C9.57844 23.6137 10.2509 24.2861 11.0804 24.2861H12.9196C13.7491 24.2861 14.4216 23.6137 14.4216 22.7842ZM3.15755 18.9112C3.40842 18.9304 3.71194 18.9414 4.01681 18.9236C4.17923 19.7472 4.58273 20.5112 5.18503 21.1136C5.98462 21.9131 7.06908 22.3623 8.19984 22.3623H8.77294C8.74767 22.5006 8.73469 22.6417 8.73469 22.7842C8.73469 22.9282 8.74767 23.0693 8.77256 23.2061H8.19984C6.8453 23.2061 5.5462 22.668 4.58841 21.7102C3.8243 20.946 3.32728 19.9647 3.15755 18.9112ZM2.72836 18.0134C2.06222 17.9011 1.44234 17.5844 0.958453 17.1005C0.344766 16.4868 0 15.6544 0 14.7866V12.7924C0 11.9245 0.344766 11.0921 0.958453 10.4784C1.57214 9.86473 2.4045 9.51991 3.27239 9.51991H3.49022C3.83841 5.1251 7.51538 1.66699 12 1.66699C16.4846 1.66699 20.1616 5.1251 20.5098 9.51991H20.7276C21.5955 9.51991 22.4279 9.86473 23.0415 10.4784C23.6552 11.0921 24 11.9245 24 12.7924V14.7866C24 15.6544 23.6552 16.4868 23.0415 17.1005C22.4279 17.7142 21.5955 18.059 20.7276 18.059H19.7619C19.3614 18.059 19.0368 17.7343 19.0368 17.3338V10.2038C19.0368 6.31746 15.8863 3.16699 12 3.16699C8.11369 3.16699 4.96322 6.31746 4.96322 10.2038V17.3338C4.96322 17.6166 4.80136 17.8616 4.5652 17.9812C3.91514 18.2067 2.907 18.0436 2.72836 18.0134Z" fill="black"/>
</g>
<defs>
<clipPath id="clip0_1_604">
<rect width="24" height="24" fill="white" transform="translate(0 0.976562)"/>
</clipPath>
</defs>
</svg>
