<svg width="25" height="25" viewBox="0 0 25 25" fill="none" xmlns="http://www.w3.org/2000/svg">
<path d="M7.12744 16.2472C5.71267 17.0896 2.00323 18.8097 4.26253 20.9622C5.36618 22.0136 6.59536 22.7656 8.14073 22.7656H16.959C18.5044 22.7656 19.7336 22.0136 20.8372 20.9622C23.0965 18.8097 19.3871 17.0896 17.9723 16.2472C14.6547 14.2718 10.4451 14.2718 7.12744 16.2472Z" stroke="#75757C" stroke-width="1.5" stroke-linecap="round" stroke-linejoin="round"/>
<path d="M17.0499 7.26562C17.0499 9.75091 15.0351 11.7656 12.5499 11.7656C10.0646 11.7656 8.04987 9.75091 8.04987 7.26562C8.04987 4.78034 10.0646 2.76562 12.5499 2.76562C15.0351 2.76562 17.0499 4.78034 17.0499 7.26562Z" stroke="#75757C" stroke-width="1.5"/>
</svg>
