<svg width="36" height="36" viewBox="0 0 36 36" fill="none" xmlns="http://www.w3.org/2000/svg">
<path d="M16.8087 0.465383C17.1389 -0.134477 17.9918 -0.159552 18.3567 0.419875L20.1065 3.19867C20.8578 4.39186 20.0053 5.94606 18.5953 5.95396L16.8333 5.96383C15.4614 5.97152 14.5869 4.50143 15.2485 3.29955L16.8087 0.465383Z" fill="#0054DC"/>
<path d="M19.3186 35.5189C19.0003 36.1252 18.148 36.1672 17.7717 35.5951L15.9673 32.8515C15.1925 31.6734 16.014 30.1026 17.4236 30.0668L19.185 30.022C20.5566 29.9872 21.46 31.4396 20.8223 32.6544L19.3186 35.5189Z" fill="#0054DC"/>
<path d="M0.445065 19.5212C-0.146039 19.1755 -0.148916 18.3223 0.439841 17.9726L3.26336 16.2958C4.47574 15.5757 6.00732 16.4682 5.97857 17.8779L5.94266 19.6394C5.91469 21.011 4.42225 21.847 3.23789 21.1544L0.445065 19.5212Z" fill="#0054DC"/>
<path d="M35.5299 17.6042C36.1317 17.9308 36.1619 18.7837 35.5848 19.1521L32.8171 20.919C31.6287 21.6777 30.0696 20.8347 30.053 19.4245L30.0324 17.6625C30.0163 16.2903 31.4809 15.4067 32.6867 16.0611L35.5299 17.6042Z" fill="#0054DC"/>
<path d="M4.92036 6.39845C4.75426 5.73406 5.36218 5.1353 6.0237 5.31176L9.19641 6.15808C10.5589 6.52151 10.9914 8.2412 9.96312 9.20635L8.67848 10.4121C7.67831 11.3509 6.03787 10.8682 5.70511 9.53724L4.92036 6.39845Z" fill="#0054DC"/>
<path d="M29.671 4.87426C30.3352 4.70822 30.9336 5.31646 30.7571 5.97816L29.9106 9.15126C29.5471 10.5136 27.8288 10.9463 26.8639 9.9184L25.658 8.6338C24.7188 7.63332 25.2014 5.99159 26.5324 5.65885L29.671 4.87426Z" fill="#0054DC"/>
<path d="M6.03511 31.7273C5.36829 31.8823 4.77985 31.2641 4.96716 30.6055L5.86544 27.4465C6.25117 26.0901 7.97695 25.6863 8.92474 26.7309L10.1089 28.0359C11.031 29.052 10.5215 30.6849 9.18554 30.9953L6.03511 31.7273Z" fill="#0054DC"/>
<path d="M30.8683 30.6435C31.0114 31.3132 30.3831 31.8908 29.728 31.6917L26.5869 30.7372C25.2381 30.3274 24.8651 28.5945 25.9255 27.665L27.2507 26.5034C28.2826 25.5988 29.906 26.1373 30.1926 27.4792L30.8683 30.6435Z" fill="#0054DC"/>
<path d="M28.2498 18.2748C28.2498 23.897 23.7155 28.431 18.093 28.431C12.4705 28.431 7.93624 23.897 7.93624 18.2748C7.93624 12.6526 12.4705 8.11863 18.093 8.11863C23.7155 8.11863 28.2498 12.6526 28.2498 18.2748Z" fill="url(#paint0_radial_1_280)"/>
<defs>
<radialGradient id="paint0_radial_1_280" cx="0" cy="0" r="1" gradientUnits="userSpaceOnUse" gradientTransform="translate(10.9565 12.1304) rotate(73.5596) scale(24.8871)">
<stop stop-color="#5693F5"/>
<stop offset="0.521475" stop-color="#0054DC"/>
</radialGradient>
</defs>
</svg>
