<svg width="20" height="20" viewBox="0 0 20 20" fill="none" xmlns="http://www.w3.org/2000/svg">
<path d="M1.66663 9.16665C1.66663 6.41679 1.66663 5.04186 2.5209 4.18758C3.37517 3.33331 4.7501 3.33331 7.49996 3.33331H8.33329C11.0832 3.33331 12.4581 3.33331 13.3124 4.18758C14.1666 5.04186 14.1666 6.41679 14.1666 9.16665V10.8333C14.1666 13.5832 14.1666 14.9581 13.3124 15.8124C12.4581 16.6666 11.0832 16.6666 8.33329 16.6666H7.49996C4.7501 16.6666 3.37517 16.6666 2.5209 15.8124C1.66663 14.9581 1.66663 13.5832 1.66663 10.8333V9.16665Z" stroke="white" stroke-width="1.5"/>
<path d="M14.1666 7.4215L14.2716 7.33493C16.0347 5.88015 16.9163 5.15276 17.6248 5.50398C18.3333 5.85519 18.3333 7.01958 18.3333 9.34836V10.6516C18.3333 12.9803 18.3333 14.1447 17.6248 14.4959C16.9163 14.8472 16.0347 14.1198 14.2716 12.665L14.1666 12.5784" stroke="white" stroke-width="1.5" stroke-linecap="round"/>
<circle cx="9.58325" cy="7.91663" r="1.25" stroke="white" stroke-width="1.5"/>
</svg>
