<svg width="25" height="24" viewBox="0 0 25 24" fill="none" xmlns="http://www.w3.org/2000/svg">
<path d="M16.5166 14C16.5166 14.8284 17.1882 15.5 18.0166 15.5C18.845 15.5 19.5166 14.8284 19.5166 14C19.5166 13.1716 18.845 12.5 18.0166 12.5C17.1882 12.5 16.5166 13.1716 16.5166 14Z" stroke="#393F43" stroke-width="1.5"/>
<path d="M19.4166 8C19.4822 7.67689 19.5166 7.34247 19.5166 7C19.5166 4.23858 17.278 2 14.5166 2C11.7552 2 9.5166 4.23858 9.5166 7C9.5166 7.34247 9.55103 7.67689 9.61662 8" stroke="#393F43" stroke-width="1.5"/>
<path d="M7.5166 7.99324H16.5166C19.345 7.99324 20.7592 7.99324 21.6379 8.87234C22.5166 9.75145 22.5166 11.1663 22.5166 13.9961V15.9971C22.5166 18.8269 22.5166 20.2418 21.6379 21.1209C20.7592 22 19.345 22 16.5166 22H10.5166C6.74537 22 4.85975 22 3.68817 20.8279C2.5166 19.6557 2.5166 17.7692 2.5166 13.9961V11.9952C2.5166 8.22211 2.5166 6.33558 3.68817 5.16344C4.63126 4.2199 6.03703 4.03589 8.5166 4H10.5166" stroke="#393F43" stroke-width="1.5" stroke-linecap="round"/>
</svg>
